<?xml version="1.0" encoding="UTF-8"?> <svg xmlns="http://www.w3.org/2000/svg" width="47" height="36" viewBox="0 0 47 36" fill="none"> <path d="M9.19565 21.3934C11.5311 21.5902 13.2826 22.3279 14.4503 23.6066C15.618 24.9836 16.2019 26.5574 16.2019 28.3279C16.2019 30.5902 15.4234 32.4098 13.8665 33.7869C12.3095 35.2623 10.5093 36 8.46584 36C5.93582 36 3.89234 35.2131 2.3354 33.6393C0.778468 32.0656 -2.04167e-07 30.0984 0 27.7377C2.04167e-07 25.3771 0.729815 22.8197 2.18944 20.0656C3.55176 17.4098 5.25466 14.0164 7.29814 9.88525L12.1149 0L20.8727 7.73906e-07L9.19565 21.3934ZM35.323 21.3934C37.6584 21.5902 39.4099 22.3279 40.5776 23.6066C41.7453 24.9836 42.3292 26.5574 42.3292 28.3279C42.3292 30.5902 41.5507 32.4098 39.9938 33.7869C38.4368 35.2623 36.6366 36 34.5932 36C32.0631 36 30.0197 35.2131 28.4627 33.6393C26.9058 32.0656 26.1273 30.0984 26.1273 27.7377C26.1273 25.3771 26.8571 22.8197 28.3168 20.0656C29.6791 17.4098 31.382 14.0164 33.4255 9.88525L38.2422 2.30882e-06L47 3.08273e-06L35.323 21.3934Z" fill="black"></path> </svg> 